<svg width="150" height="50" viewBox="0 0 150 50" fill="none" xmlns="http://www.w3.org/2000/svg">
<g clip-path="url(#clip0_1129_155)">
<path d="M10.4646 9.35156L0.445312 15.8574L10.4646 22.3633L20.4839 15.8574L10.4646 9.35156Z" fill="#82FF83"/>
<path d="M0.445312 15.8594V22.3652L10.4646 28.8711V22.3652L0.445312 15.8594Z" fill="#F3F3F3"/>
<path d="M20.4802 15.8594V22.3652L10.4609 28.8711V22.3652L20.4802 15.8594Z" fill="#CFCCCF"/>
<path d="M10.4646 9.35156L0.445312 15.8574L10.4646 22.3633L20.4839 15.8574L10.4646 9.35156Z" fill="#82FF83"/>
<path d="M0.445312 15.8594V22.3652L10.4646 28.8711V22.3652L0.445312 15.8594Z" fill="#F3F3F3"/>
<path d="M20.4802 15.8594V22.3652L10.4609 28.8711V22.3652L20.4802 15.8594Z" fill="#CFCCCF"/>
<path d="M10.4646 29.3101C10.38 29.3101 10.2954 29.2878 10.2241 29.2388L0.204839 22.733C0.0801544 22.6528 0 22.5103 0 22.3589V15.8531C0 15.6883 0.0890604 15.5413 0.231557 15.4612C0.374054 15.381 0.552175 15.3899 0.685765 15.479L10.7051 21.9849C10.8298 22.065 10.9099 22.2075 10.9099 22.3589V28.8648C10.9099 29.0296 10.8208 29.1765 10.6783 29.2567C10.6116 29.2923 10.5403 29.3101 10.4646 29.3101ZM0.890604 22.1185L10.0193 28.0454V22.6038L0.890604 16.6724V22.1185Z" fill="#231F20"/>
<path d="M10.4609 29.3161C10.3897 29.3161 10.314 29.2983 10.2472 29.2627C10.1047 29.187 10.0156 29.0356 10.0156 28.8708V22.365C10.0156 22.2136 10.0913 22.0755 10.2205 21.9909L20.2398 15.485C20.3778 15.396 20.5515 15.3915 20.694 15.4672C20.8365 15.5429 20.9255 15.6943 20.9255 15.8591V22.365C20.9255 22.5164 20.8498 22.6544 20.7207 22.739L10.7014 29.2449C10.6257 29.2939 10.5411 29.3161 10.4609 29.3161ZM10.9062 22.6099V28.0515L20.0349 22.1245V16.6784L10.9062 22.6054V22.6099Z" fill="#231F20"/>
<path d="M10.4646 22.8075C10.38 22.8075 10.2954 22.7852 10.2241 22.7362L0.204839 16.2304C0.0801544 16.1502 0 16.0077 0 15.8563C0 15.7049 0.0757014 15.5669 0.204839 15.4823L10.2241 8.97639C10.3711 8.88287 10.5626 8.88287 10.7095 8.97639L20.7288 15.4823C20.8535 15.5624 20.9337 15.7049 20.9337 15.8563C20.9337 16.0077 20.858 16.1458 20.7288 16.2304L10.7095 22.7362C10.6338 22.7852 10.5492 22.8075 10.4691 22.8075H10.4646ZM1.26466 15.8563L10.4646 21.8323L19.6645 15.8563L10.4646 9.88035L1.26466 15.8563Z" fill="#231F20"/>
<path d="M30.5037 9.35156L20.4844 15.8574L30.5037 22.3633L40.523 15.8574L30.5037 9.35156Z" fill="#82FF83"/>
<path d="M20.4844 15.8594V22.3652L30.5037 28.8711V22.3652L20.4844 15.8594Z" fill="#F3F3F3"/>
<path d="M40.5193 15.8594V22.3652L30.5 28.8711V22.3652L40.5193 15.8594Z" fill="#CFCCCF"/>
<path d="M30.5037 9.35156L20.4844 15.8574L30.5037 22.3633L40.523 15.8574L30.5037 9.35156Z" fill="#0B65FA"/>
<path d="M20.4844 15.8594V22.3652L30.5037 28.8711V22.3652L20.4844 15.8594Z" fill="#F3F3F3"/>
<path d="M40.5193 15.8594V22.3652L30.5 28.8711V22.3652L40.5193 15.8594Z" fill="#CFCCCF"/>
<path d="M30.5037 29.3161C30.4191 29.3161 30.3344 29.2939 30.2632 29.2449L20.2439 22.739C20.1192 22.6589 20.0391 22.5164 20.0391 22.365V15.8591C20.0391 15.6943 20.1281 15.5474 20.2706 15.4672C20.4131 15.3915 20.5868 15.396 20.7248 15.485L30.7441 21.9909C30.8688 22.0711 30.949 22.2136 30.949 22.365V28.8708C30.949 29.0356 30.8599 29.1825 30.7174 29.2627C30.6506 29.2983 30.5794 29.3161 30.5037 29.3161ZM20.9297 22.1245L30.0584 28.0515V22.6099L20.9297 16.6829V22.1289V22.1245Z" fill="#231F20"/>
<path d="M30.5078 29.3161C30.4366 29.3161 30.3609 29.2983 30.2941 29.2627C30.1516 29.187 30.0625 29.0356 30.0625 28.8708V22.365C30.0625 22.2136 30.1382 22.0755 30.2673 21.9909L40.2866 15.485C40.4247 15.396 40.5984 15.3915 40.7408 15.4672C40.8833 15.5429 40.9724 15.6943 40.9724 15.8591V22.365C40.9724 22.5164 40.8967 22.6544 40.7676 22.739L30.7483 29.2449C30.6726 29.2939 30.588 29.3161 30.5078 29.3161ZM30.9531 22.6099V28.0515L40.0818 22.1245V16.6784L30.9531 22.6054V22.6099Z" fill="#231F20"/>
<path d="M30.5037 22.8075C30.4191 22.8075 30.3344 22.7852 30.2632 22.7362L20.2439 16.2304C20.1192 16.1502 20.0391 16.0077 20.0391 15.8563C20.0391 15.7049 20.1148 15.5669 20.2439 15.4823L30.2632 8.97639C30.4102 8.88287 30.6016 8.88287 30.7486 8.97639L40.7679 15.4823C40.8926 15.5624 40.9727 15.7049 40.9727 15.8563C40.9727 16.0077 40.897 16.1458 40.7679 16.2304L30.7486 22.7362C30.6729 22.7852 30.5883 22.8075 30.5081 22.8075H30.5037ZM21.3037 15.8563L30.5037 21.8323L39.7036 15.8563L30.5037 9.88035L21.3037 15.8563Z" fill="#231F20"/>
<path d="M20.4802 15.8594L10.4609 22.3652L20.4802 28.8711L30.4995 22.3652L20.4802 15.8594Z" fill="#82FF83"/>
<path d="M10.4609 22.3672V28.8731L20.4802 35.3789V28.8731L10.4609 22.3672Z" fill="#F3F3F3"/>
<path d="M30.4959 22.3672V28.8731L20.4766 35.3789V28.8731L30.4959 22.3672Z" fill="#CFCCCF"/>
<path d="M20.4802 15.8594L10.4609 22.3652L20.4802 28.8711L30.4995 22.3652L20.4802 15.8594Z" fill="#82FF83"/>
<path d="M10.4609 22.3672V28.8731L20.4802 35.3789V28.8731L10.4609 22.3672Z" fill="#F3F3F3"/>
<path d="M30.4959 22.3672V28.8731L20.4766 35.3789V28.8731L30.4959 22.3672Z" fill="#CFCCCF"/>
<path d="M20.4802 35.8179C20.3956 35.8179 20.311 35.7956 20.2398 35.7467L10.2205 29.2408C10.0958 29.1606 10.0156 29.0181 10.0156 28.8667V22.3609C10.0156 22.1961 10.1047 22.0492 10.2472 21.969C10.3897 21.8889 10.5633 21.8978 10.7014 21.9868L20.7207 28.4927C20.8454 28.5728 20.9255 28.7153 20.9255 28.8667V35.3726C20.9255 35.5374 20.8365 35.6843 20.694 35.7645C20.6272 35.8001 20.5559 35.8179 20.4802 35.8179ZM10.9062 28.6263L20.0349 34.5532V29.1117L10.9062 23.1847V28.6307V28.6263Z" fill="#231F20"/>
<path d="M20.4766 35.8239C20.4053 35.8239 20.3296 35.8061 20.2628 35.7705C20.1203 35.6948 20.0312 35.5434 20.0312 35.3786V28.8728C20.0312 28.7214 20.107 28.5833 20.2361 28.4987L30.2554 21.9928C30.3934 21.9038 30.5671 21.8993 30.7096 21.975C30.8521 22.0507 30.9412 22.2021 30.9412 22.3669V28.8728C30.9412 29.0242 30.8655 29.1622 30.7363 29.2468L20.717 35.7527C20.6413 35.8017 20.5567 35.8239 20.4766 35.8239ZM20.9219 29.1177V34.5593L30.0505 28.6323V23.1863L20.9219 29.1132V29.1177Z" fill="#231F20"/>
<path d="M20.4802 29.3153C20.3956 29.3153 20.311 29.293 20.2398 29.244L10.2205 22.7382C10.0958 22.658 10.0156 22.5155 10.0156 22.3641C10.0156 22.2127 10.0913 22.0747 10.2205 21.9901L20.2398 15.4842C20.3867 15.3907 20.5782 15.3907 20.7251 15.4842L30.7444 21.9901C30.8691 22.0702 30.9493 22.2127 30.9493 22.3641C30.9493 22.5155 30.8736 22.6536 30.7444 22.7382L20.7251 29.244C20.6494 29.293 20.5648 29.3153 20.4847 29.3153H20.4802ZM11.2803 22.3641L20.4802 28.3401L29.6802 22.3641L20.4802 16.3882L11.2803 22.3641Z" fill="#231F20"/>
<path d="M10.4646 22.3672L0.445312 28.8731L10.4646 35.3789L20.4839 28.8731L10.4646 22.3672Z" fill="#82FF83"/>
<path d="M0.445312 28.875V35.3809L10.4646 41.8867V35.3809L0.445312 28.875Z" fill="#F3F3F3"/>
<path d="M20.4802 28.875V35.3809L10.4609 41.8867V35.3809L20.4802 28.875Z" fill="#CFCCCF"/>
<path d="M10.4646 22.3672L0.445312 28.8731L10.4646 35.3789L20.4839 28.8731L10.4646 22.3672Z" fill="#0B65FA"/>
<path d="M0.445312 28.875V35.3809L10.4646 41.8867V35.3809L0.445312 28.875Z" fill="#F3F3F3"/>
<path d="M20.4802 28.875V35.3809L10.4609 41.8867V35.3809L20.4802 28.875Z" fill="#CFCCCF"/>
<path d="M10.4646 42.3257C10.38 42.3257 10.2954 42.3035 10.2241 42.2545L0.204839 35.7486C0.0801544 35.6684 0 35.526 0 35.3745V28.8687C0 28.7039 0.0890604 28.557 0.231557 28.4768C0.374054 28.3967 0.552175 28.4056 0.685765 28.4946L10.7051 35.0005C10.8298 35.0807 10.9099 35.2231 10.9099 35.3745V41.8804C10.9099 42.0452 10.8208 42.1921 10.6783 42.2723C10.6116 42.3079 10.5403 42.3257 10.4646 42.3257ZM0.890604 35.1341L10.0193 41.0611V35.6195L0.890604 29.688V35.1341Z" fill="#231F20"/>
<path d="M10.4609 42.3317C10.3897 42.3317 10.314 42.3139 10.2472 42.2783C10.1047 42.2026 10.0156 42.0512 10.0156 41.8864V35.3806C10.0156 35.2292 10.0913 35.0911 10.2205 35.0065L20.2398 28.5007C20.3778 28.4116 20.5515 28.4071 20.694 28.4828C20.8365 28.5586 20.9255 28.71 20.9255 28.8747V35.3806C20.9255 35.532 20.8498 35.67 20.7207 35.7546L10.7014 42.2605C10.6257 42.3095 10.5411 42.3317 10.4609 42.3317ZM10.9062 35.6255V41.0671L20.0349 35.1401V29.6941L10.9062 35.621V35.6255Z" fill="#231F20"/>
<path d="M10.4646 35.8231C10.38 35.8231 10.2954 35.8008 10.2241 35.7518L0.204839 29.246C0.0801544 29.1658 0 29.0233 0 28.8719C0 28.7205 0.0757014 28.5825 0.204839 28.4979L10.2241 21.992C10.3711 21.8985 10.5626 21.8985 10.7095 21.992L20.7288 28.4979C20.8535 28.578 20.9337 28.7205 20.9337 28.8719C20.9337 29.0233 20.858 29.1614 20.7288 29.246L10.7095 35.7518C10.6338 35.8008 10.5492 35.8231 10.4691 35.8231H10.4646ZM1.26466 28.8719L10.4646 34.8479L19.6645 28.8719L10.4646 22.896L1.26466 28.8719Z" fill="#231F20"/>
<path d="M30.5115 22.3672L20.4922 28.8731L30.5115 35.3789L40.5308 28.8731L30.5115 22.3672Z" fill="#82FF83"/>
<path d="M20.4922 28.875V35.3809L30.5115 41.8867V35.3809L20.4922 28.875Z" fill="#F3F3F3"/>
<path d="M40.5193 28.875V35.3809L30.5 41.8867V35.3809L40.5193 28.875Z" fill="#CFCCCF"/>
<path d="M30.5115 22.3672L20.4922 28.8731L30.5115 35.3789L40.5308 28.8731L30.5115 22.3672Z" fill="#82FF83"/>
<path d="M20.4922 28.875V35.3809L30.5115 41.8867V35.3809L20.4922 28.875Z" fill="#F3F3F3"/>
<path d="M40.5193 28.875V35.3809L30.5 41.8867V35.3809L40.5193 28.875Z" fill="#CFCCCF"/>
<path d="M30.5037 42.3317C30.4191 42.3317 30.3344 42.3095 30.2632 42.2605L20.2439 35.7546C20.1192 35.6745 20.0391 35.532 20.0391 35.3806V28.8747C20.0391 28.71 20.1281 28.563 20.2706 28.4828C20.4131 28.4071 20.5868 28.4116 20.7248 28.5007L30.7441 35.0065C30.8688 35.0867 30.949 35.2292 30.949 35.3806V41.8864C30.949 42.0512 30.8599 42.1982 30.7174 42.2783C30.6506 42.3139 30.5794 42.3317 30.5037 42.3317ZM20.9297 35.1401L30.0584 41.0671V35.6255L20.9297 29.6985V35.1446V35.1401Z" fill="#231F20"/>
<path d="M30.5078 42.3317C30.4366 42.3317 30.3609 42.3139 30.2941 42.2783C30.1516 42.2026 30.0625 42.0512 30.0625 41.8864V35.3806C30.0625 35.2292 30.1382 35.0911 30.2673 35.0065L40.2866 28.5007C40.4247 28.4116 40.5984 28.4071 40.7408 28.4828C40.8833 28.5586 40.9724 28.71 40.9724 28.8747V35.3806C40.9724 35.532 40.8967 35.67 40.7676 35.7546L30.7483 42.2605C30.6726 42.3095 30.588 42.3317 30.5078 42.3317ZM30.9531 35.6255V41.0671L40.0818 35.1401V29.6941L30.9531 35.621V35.6255Z" fill="#231F20"/>
<path d="M30.5037 35.8231C30.4191 35.8231 30.3344 35.8008 30.2632 35.7518L20.2439 29.246C20.1192 29.1658 20.0391 29.0233 20.0391 28.8719C20.0391 28.7205 20.1148 28.5825 20.2439 28.4979L30.2632 21.992C30.4102 21.8985 30.6016 21.8985 30.7486 21.992L40.7679 28.4979C40.8926 28.578 40.9727 28.7205 40.9727 28.8719C40.9727 29.0233 40.897 29.1614 40.7679 29.246L30.7486 35.7518C30.6729 35.8008 30.5883 35.8231 30.5081 35.8231H30.5037ZM21.3037 28.8719L30.5037 34.8479L39.7036 28.8719L30.5037 22.896L21.3037 28.8719Z" fill="#231F20"/>
</g>
<path d="M58.2414 20.2969H60.2091C64.1167 20.2969 66.0527 21.5849 66.0409 24.1887H63.3304C63.3462 23.0666 62.1333 22.4937 59.7547 22.4937H58.6958C56.1355 22.4937 54.7882 23.6434 54.7882 25.8718C54.7882 28.1003 56.1355 29.25 58.6958 29.25H59.7547C62.1017 29.25 63.3146 28.5704 63.3304 27.235L58.0162 27.2034V25.3108H66.0409V27.1718C66.0409 29.9889 64.0732 31.4429 60.2091 31.4429H58.2414C54.1837 31.4429 52.1094 29.5503 52.1094 25.8718C52.1094 22.1934 54.1837 20.2969 58.2414 20.2969Z" fill="white"/>
<path d="M70.2169 29.1117L68.5061 30.8976H65.3413L75.3652 20.2969H78.123L88.2536 30.8976H85.1046L83.3464 29.1117H70.2169ZM76.7441 22.3435L72.2913 26.9781H81.2562L76.7441 22.3435Z" fill="white"/>
<path d="M89.0542 20.2969H91.6303L96.5533 27.2468L101.472 20.2969H104.049V30.8976H101.472V24.2796L97.5056 29.9296L95.5972 29.9454L91.6303 24.2835V30.9016H89.0542V20.2969Z" fill="white"/>
<path d="M106.419 20.2969H108.995V30.8976H106.419V20.2969Z" fill="white"/>
<path d="M134.084 30.8976H131.54L113.942 22.8572V30.8976H111.366V20.2969H113.894L131.508 28.3689V20.2969H134.084V30.8976Z" fill="white"/>
<path d="M142.185 20.2969H144.152C148.06 20.2969 149.996 21.5849 149.984 24.1887H147.274C147.29 23.0666 146.077 22.4937 143.698 22.4937H142.639C140.079 22.4937 138.732 23.6434 138.732 25.8718C138.732 28.1003 140.079 29.25 142.639 29.25H143.698C146.045 29.25 147.258 28.5704 147.274 27.235L141.96 27.2034V25.3108H149.988V27.1718C149.988 29.9889 148.021 31.4429 144.156 31.4429H142.189C138.131 31.4429 136.057 29.5503 136.057 25.8718C136.057 22.1934 138.131 20.2969 142.189 20.2969L142.185 20.2969Z" fill="white"/>
<defs>
<clipPath id="clip0_1129_155">
<rect width="40.9678" height="33.4199" fill="white" transform="translate(0 8.91016)"/>
</clipPath>
</defs>
</svg>
