<svg width="41" height="35" viewBox="0 0 41 35" fill="none" xmlns="http://www.w3.org/2000/svg">
<g clip-path="url(#clip0_1129_158)">
<path d="M10.4646 1.35156L0.445312 7.85743L10.4646 14.3633L20.4839 7.85743L10.4646 1.35156Z" fill="#82FF83"/>
<path d="M0.445312 7.85938V14.3652L10.4646 20.8711V14.3652L0.445312 7.85938Z" fill="#F3F3F3"/>
<path d="M20.4802 7.85938V14.3652L10.4609 20.8711V14.3652L20.4802 7.85938Z" fill="#CFCCCF"/>
<path d="M10.4646 1.35156L0.445312 7.85743L10.4646 14.3633L20.4839 7.85743L10.4646 1.35156Z" fill="#82FF83"/>
<path d="M0.445312 7.85938V14.3652L10.4646 20.8711V14.3652L0.445312 7.85938Z" fill="#F3F3F3"/>
<path d="M20.4802 7.85938V14.3652L10.4609 20.8711V14.3652L20.4802 7.85938Z" fill="#CFCCCF"/>
<path d="M10.4646 21.3101C10.38 21.3101 10.2954 21.2878 10.2241 21.2388L0.204839 14.733C0.0801544 14.6528 0 14.5103 0 14.3589V7.85306C0 7.6883 0.0890604 7.54135 0.231557 7.46119C0.374054 7.38104 0.552175 7.38995 0.685765 7.47901L10.7051 13.9849C10.8298 14.065 10.9099 14.2075 10.9099 14.3589V20.8648C10.9099 21.0296 10.8208 21.1765 10.6783 21.2567C10.6116 21.2923 10.5403 21.3101 10.4646 21.3101ZM0.890604 14.1185L10.0193 20.0454V14.6038L0.890604 8.67242V14.1185Z" fill="#231F20"/>
<path d="M10.4609 21.3161C10.3897 21.3161 10.314 21.2983 10.2472 21.2627C10.1047 21.187 10.0156 21.0356 10.0156 20.8708V14.365C10.0156 14.2136 10.0913 14.0755 10.2205 13.9909L20.2398 7.48504C20.3778 7.39598 20.5515 7.39152 20.694 7.46722C20.8365 7.54293 20.9255 7.69433 20.9255 7.85909V14.365C20.9255 14.5164 20.8498 14.6544 20.7207 14.739L10.7014 21.2449C10.6257 21.2939 10.5411 21.3161 10.4609 21.3161ZM10.9062 14.6099V20.0515L20.0349 14.1245V8.67845L10.9062 14.6054V14.6099Z" fill="#231F20"/>
<path d="M10.4646 14.8075C10.38 14.8075 10.2954 14.7852 10.2241 14.7362L0.204839 8.23036C0.0801544 8.1502 0 8.00771 0 7.8563C0 7.7049 0.0757014 7.56686 0.204839 7.48225L10.2241 0.976385C10.3711 0.882872 10.5626 0.882872 10.7095 0.976385L20.7288 7.48225C20.8535 7.56241 20.9337 7.7049 20.9337 7.8563C20.9337 8.00771 20.858 8.14575 20.7288 8.23036L10.7095 14.7362C10.6338 14.7852 10.5492 14.8075 10.4691 14.8075H10.4646ZM1.26466 7.8563L10.4646 13.8323L19.6645 7.8563L10.4646 1.88035L1.26466 7.8563Z" fill="#231F20"/>
<path d="M30.5037 1.35156L20.4844 7.85743L30.5037 14.3633L40.523 7.85743L30.5037 1.35156Z" fill="#82FF83"/>
<path d="M20.4844 7.85938V14.3652L30.5037 20.8711V14.3652L20.4844 7.85938Z" fill="#F3F3F3"/>
<path d="M40.5193 7.85938V14.3652L30.5 20.8711V14.3652L40.5193 7.85938Z" fill="#CFCCCF"/>
<path d="M30.5037 1.35156L20.4844 7.85743L30.5037 14.3633L40.523 7.85743L30.5037 1.35156Z" fill="#0B65FA"/>
<path d="M20.4844 7.85938V14.3652L30.5037 20.8711V14.3652L20.4844 7.85938Z" fill="#F3F3F3"/>
<path d="M40.5193 7.85938V14.3652L30.5 20.8711V14.3652L40.5193 7.85938Z" fill="#CFCCCF"/>
<path d="M30.5037 21.3161C30.4191 21.3161 30.3344 21.2939 30.2632 21.2449L20.2439 14.739C20.1192 14.6589 20.0391 14.5164 20.0391 14.365V7.85909C20.0391 7.69433 20.1281 7.54738 20.2706 7.46722C20.4131 7.39152 20.5868 7.39598 20.7248 7.48504L30.7441 13.9909C30.8688 14.0711 30.949 14.2136 30.949 14.365V20.8708C30.949 21.0356 30.8599 21.1825 30.7174 21.2627C30.6506 21.2983 30.5794 21.3161 30.5037 21.3161ZM20.9297 14.1245L30.0584 20.0515V14.6099L20.9297 8.6829V14.1289V14.1245Z" fill="#231F20"/>
<path d="M30.5078 21.3161C30.4366 21.3161 30.3609 21.2983 30.2941 21.2627C30.1516 21.187 30.0625 21.0356 30.0625 20.8708V14.365C30.0625 14.2136 30.1382 14.0755 30.2673 13.9909L40.2866 7.48504C40.4247 7.39598 40.5984 7.39152 40.7408 7.46722C40.8833 7.54293 40.9724 7.69433 40.9724 7.85909V14.365C40.9724 14.5164 40.8967 14.6544 40.7676 14.739L30.7483 21.2449C30.6726 21.2939 30.588 21.3161 30.5078 21.3161ZM30.9531 14.6099V20.0515L40.0818 14.1245V8.67845L30.9531 14.6054V14.6099Z" fill="#231F20"/>
<path d="M30.5037 14.8075C30.4191 14.8075 30.3344 14.7852 30.2632 14.7362L20.2439 8.23036C20.1192 8.1502 20.0391 8.00771 20.0391 7.8563C20.0391 7.7049 20.1148 7.56686 20.2439 7.48225L30.2632 0.976385C30.4102 0.882872 30.6016 0.882872 30.7486 0.976385L40.7679 7.48225C40.8926 7.56241 40.9727 7.7049 40.9727 7.8563C40.9727 8.00771 40.897 8.14575 40.7679 8.23036L30.7486 14.7362C30.6729 14.7852 30.5883 14.8075 30.5081 14.8075H30.5037ZM21.3037 7.8563L30.5037 13.8323L39.7036 7.8563L30.5037 1.88035L21.3037 7.8563Z" fill="#231F20"/>
<path d="M20.4802 7.85938L10.4609 14.3652L20.4802 20.8711L30.4995 14.3652L20.4802 7.85938Z" fill="#82FF83"/>
<path d="M10.4609 14.3672V20.8731L20.4802 27.3789V20.8731L10.4609 14.3672Z" fill="#F3F3F3"/>
<path d="M30.4959 14.3672V20.8731L20.4766 27.3789V20.8731L30.4959 14.3672Z" fill="#CFCCCF"/>
<path d="M20.4802 7.85938L10.4609 14.3652L20.4802 20.8711L30.4995 14.3652L20.4802 7.85938Z" fill="#82FF83"/>
<path d="M10.4609 14.3672V20.8731L20.4802 27.3789V20.8731L10.4609 14.3672Z" fill="#F3F3F3"/>
<path d="M30.4959 14.3672V20.8731L20.4766 27.3789V20.8731L30.4959 14.3672Z" fill="#CFCCCF"/>
<path d="M20.4802 27.8179C20.3956 27.8179 20.311 27.7956 20.2398 27.7467L10.2205 21.2408C10.0958 21.1606 10.0156 21.0181 10.0156 20.8667V14.3609C10.0156 14.1961 10.1047 14.0492 10.2472 13.969C10.3897 13.8889 10.5633 13.8978 10.7014 13.9868L20.7207 20.4927C20.8454 20.5728 20.9255 20.7153 20.9255 20.8667V27.3726C20.9255 27.5374 20.8365 27.6843 20.694 27.7645C20.6272 27.8001 20.5559 27.8179 20.4802 27.8179ZM10.9062 20.6263L20.0349 26.5532V21.1117L10.9062 15.1847V20.6307V20.6263Z" fill="#231F20"/>
<path d="M20.4766 27.8239C20.4053 27.8239 20.3296 27.8061 20.2628 27.7705C20.1203 27.6948 20.0312 27.5434 20.0312 27.3786V20.8728C20.0312 20.7214 20.107 20.5833 20.2361 20.4987L30.2554 13.9928C30.3934 13.9038 30.5671 13.8993 30.7096 13.975C30.8521 14.0507 30.9412 14.2021 30.9412 14.3669V20.8728C30.9412 21.0242 30.8655 21.1622 30.7363 21.2468L20.717 27.7527C20.6413 27.8017 20.5567 27.8239 20.4766 27.8239ZM20.9219 21.1177V26.5593L30.0505 20.6323V15.1863L20.9219 21.1132V21.1177Z" fill="#231F20"/>
<path d="M20.4802 21.3153C20.3956 21.3153 20.311 21.293 20.2398 21.244L10.2205 14.7382C10.0958 14.658 10.0156 14.5155 10.0156 14.3641C10.0156 14.2127 10.0913 14.0747 10.2205 13.9901L20.2398 7.4842C20.3867 7.39068 20.5782 7.39068 20.7251 7.4842L30.7444 13.9901C30.8691 14.0702 30.9493 14.2127 30.9493 14.3641C30.9493 14.5155 30.8736 14.6536 30.7444 14.7382L20.7251 21.244C20.6494 21.293 20.5648 21.3153 20.4847 21.3153H20.4802ZM11.2803 14.3641L20.4802 20.3401L29.6802 14.3641L20.4802 8.38816L11.2803 14.3641Z" fill="#231F20"/>
<path d="M10.4646 14.3672L0.445312 20.8731L10.4646 27.3789L20.4839 20.8731L10.4646 14.3672Z" fill="#82FF83"/>
<path d="M0.445312 20.875V27.3809L10.4646 33.8867V27.3809L0.445312 20.875Z" fill="#F3F3F3"/>
<path d="M20.4802 20.875V27.3809L10.4609 33.8867V27.3809L20.4802 20.875Z" fill="#CFCCCF"/>
<path d="M10.4646 14.3672L0.445312 20.8731L10.4646 27.3789L20.4839 20.8731L10.4646 14.3672Z" fill="#0B65FA"/>
<path d="M0.445312 20.875V27.3809L10.4646 33.8867V27.3809L0.445312 20.875Z" fill="#F3F3F3"/>
<path d="M20.4802 20.875V27.3809L10.4609 33.8867V27.3809L20.4802 20.875Z" fill="#CFCCCF"/>
<path d="M10.4646 34.3257C10.38 34.3257 10.2954 34.3035 10.2241 34.2545L0.204839 27.7486C0.0801544 27.6684 0 27.526 0 27.3745V20.8687C0 20.7039 0.0890604 20.557 0.231557 20.4768C0.374054 20.3967 0.552175 20.4056 0.685765 20.4946L10.7051 27.0005C10.8298 27.0807 10.9099 27.2231 10.9099 27.3745V33.8804C10.9099 34.0452 10.8208 34.1921 10.6783 34.2723C10.6116 34.3079 10.5403 34.3257 10.4646 34.3257ZM0.890604 27.1341L10.0193 33.0611V27.6195L0.890604 21.688V27.1341Z" fill="#231F20"/>
<path d="M10.4609 34.3317C10.3897 34.3317 10.314 34.3139 10.2472 34.2783C10.1047 34.2026 10.0156 34.0512 10.0156 33.8864V27.3806C10.0156 27.2292 10.0913 27.0911 10.2205 27.0065L20.2398 20.5007C20.3778 20.4116 20.5515 20.4071 20.694 20.4828C20.8365 20.5586 20.9255 20.71 20.9255 20.8747V27.3806C20.9255 27.532 20.8498 27.67 20.7207 27.7546L10.7014 34.2605C10.6257 34.3095 10.5411 34.3317 10.4609 34.3317ZM10.9062 27.6255V33.0671L20.0349 27.1401V21.6941L10.9062 27.621V27.6255Z" fill="#231F20"/>
<path d="M10.4646 27.8231C10.38 27.8231 10.2954 27.8008 10.2241 27.7518L0.204839 21.246C0.0801544 21.1658 0 21.0233 0 20.8719C0 20.7205 0.0757014 20.5825 0.204839 20.4979L10.2241 13.992C10.3711 13.8985 10.5626 13.8985 10.7095 13.992L20.7288 20.4979C20.8535 20.578 20.9337 20.7205 20.9337 20.8719C20.9337 21.0233 20.858 21.1614 20.7288 21.246L10.7095 27.7518C10.6338 27.8008 10.5492 27.8231 10.4691 27.8231H10.4646ZM1.26466 20.8719L10.4646 26.8479L19.6645 20.8719L10.4646 14.896L1.26466 20.8719Z" fill="#231F20"/>
<path d="M30.5115 14.3672L20.4922 20.8731L30.5115 27.3789L40.5308 20.8731L30.5115 14.3672Z" fill="#82FF83"/>
<path d="M20.4922 20.875V27.3809L30.5115 33.8867V27.3809L20.4922 20.875Z" fill="#F3F3F3"/>
<path d="M40.5193 20.875V27.3809L30.5 33.8867V27.3809L40.5193 20.875Z" fill="#CFCCCF"/>
<path d="M30.5115 14.3672L20.4922 20.8731L30.5115 27.3789L40.5308 20.8731L30.5115 14.3672Z" fill="#82FF83"/>
<path d="M20.4922 20.875V27.3809L30.5115 33.8867V27.3809L20.4922 20.875Z" fill="#F3F3F3"/>
<path d="M40.5193 20.875V27.3809L30.5 33.8867V27.3809L40.5193 20.875Z" fill="#CFCCCF"/>
<path d="M30.5037 34.3317C30.4191 34.3317 30.3344 34.3095 30.2632 34.2605L20.2439 27.7546C20.1192 27.6745 20.0391 27.532 20.0391 27.3806V20.8747C20.0391 20.71 20.1281 20.563 20.2706 20.4828C20.4131 20.4071 20.5868 20.4116 20.7248 20.5007L30.7441 27.0065C30.8688 27.0867 30.949 27.2292 30.949 27.3806V33.8864C30.949 34.0512 30.8599 34.1982 30.7174 34.2783C30.6506 34.3139 30.5794 34.3317 30.5037 34.3317ZM20.9297 27.1401L30.0584 33.0671V27.6255L20.9297 21.6985V27.1446V27.1401Z" fill="#231F20"/>
<path d="M30.5078 34.3317C30.4366 34.3317 30.3609 34.3139 30.2941 34.2783C30.1516 34.2026 30.0625 34.0512 30.0625 33.8864V27.3806C30.0625 27.2292 30.1382 27.0911 30.2673 27.0065L40.2866 20.5007C40.4247 20.4116 40.5984 20.4071 40.7408 20.4828C40.8833 20.5586 40.9724 20.71 40.9724 20.8747V27.3806C40.9724 27.532 40.8967 27.67 40.7676 27.7546L30.7483 34.2605C30.6726 34.3095 30.588 34.3317 30.5078 34.3317ZM30.9531 27.6255V33.0671L40.0818 27.1401V21.6941L30.9531 27.621V27.6255Z" fill="#231F20"/>
<path d="M30.5037 27.8231C30.4191 27.8231 30.3344 27.8008 30.2632 27.7518L20.2439 21.246C20.1192 21.1658 20.0391 21.0233 20.0391 20.8719C20.0391 20.7205 20.1148 20.5825 20.2439 20.4979L30.2632 13.992C30.4102 13.8985 30.6016 13.8985 30.7486 13.992L40.7679 20.4979C40.8926 20.578 40.9727 20.7205 40.9727 20.8719C40.9727 21.0233 40.897 21.1614 40.7679 21.246L30.7486 27.7518C30.6729 27.8008 30.5883 27.8231 30.5081 27.8231H30.5037ZM21.3037 20.8719L30.5037 26.8479L39.7036 20.8719L30.5037 14.896L21.3037 20.8719Z" fill="#231F20"/>
</g>
<defs>
<clipPath id="clip0_1129_158">
<rect width="40.9678" height="33.4199" fill="white" transform="translate(0 0.910156)"/>
</clipPath>
</defs>
</svg>
